<?xml version="1.0" standalone="no"?>
<!DOCTYPE svg PUBLIC "-//W3C//DTD SVG 20010904//EN"
 "http://www.w3.org/TR/2001/REC-SVG-20010904/DTD/svg10.dtd">
<svg version="1.0" xmlns="http://www.w3.org/2000/svg"
 width="16.000000pt" height="16.000000pt" viewBox="0 0 16.000000 16.000000"
 preserveAspectRatio="xMidYMid meet">
<metadata>
Created by potrace 1.11, written by Peter Selinger 2001-2013
</metadata>
<g transform="translate(0.000000,16.000000) scale(0.003478,-0.003478)"
fill="#000000" stroke="none">
<path d="M0 4480 l0 -120 1370 0 1370 0 0 -75 0 -75 -34 0 c-27 0 -43 -8 -70
-37 -39 -42 -44 -53 -21 -53 10 0 15 -10 15 -30 0 -29 -2 -30 -45 -30 -41 0
-46 -3 -73 -42 -45 -68 -45 -67 -21 -76 19 -7 15 -10 -25 -15 -48 -7 -50 -6
-177 79 -71 48 -132 91 -135 95 -3 5 -9 9 -14 9 -5 0 8 -31 30 -68 21 -37 40
-79 42 -92 3 -24 1 -25 -54 -23 -31 1 -67 8 -80 16 -13 8 -67 23 -122 32 -133
24 -283 17 -388 -19 -106 -35 -286 -131 -359 -190 -15 -11 -44 -34 -65 -51
-21 -16 -56 -47 -79 -68 l-40 -38 65 41 c158 101 419 198 534 200 38 0 24 -14
-29 -30 -65 -20 -205 -89 -280 -139 -92 -60 -271 -238 -328 -326 -48 -74 -107
-195 -127 -258 -7 -22 -18 -51 -26 -65 -8 -15 -14 -31 -14 -37 0 -6 -48 -9
-130 -7 l-130 3 0 -80 0 -81 113 -2 c61 -1 86 -3 55 -5 l-58 -4 0 -69 0 -70
110 0 c61 0 110 -4 110 -9 0 -5 -12 -11 -27 -13 -24 -3 -29 -9 -36 -47 -11
-57 -3 -89 26 -94 12 -2 -24 -5 -80 -6 l-103 -1 0 -47 c0 -94 0 -93 107 -93
60 0 92 -4 88 -10 -3 -5 -15 -10 -26 -10 -18 0 -20 -6 -17 -57 3 -51 6 -58 26
-61 12 -2 22 -8 22 -13 0 -5 -36 -9 -80 -9 l-80 0 0 -75 0 -75 130 0 130 0 0
75 0 75 -46 0 c-27 0 -43 4 -39 10 3 6 46 10 95 10 49 0 92 -4 95 -10 4 -6
-13 -10 -44 -10 l-51 0 0 -75 0 -75 80 0 c47 0 80 -4 80 -10 0 -5 -11 -10 -25
-10 -24 0 -25 -3 -25 -57 0 -32 4 -63 8 -70 4 -7 38 -14 77 -16 41 -2 15 -4
-62 -5 l-133 -2 0 -64 0 -65 93 -3 c50 -2 109 -1 129 1 l38 3 1 62 c1 75 17
48 18 -30 l1 -51 65 -44 c66 -45 92 -77 32 -40 -19 11 -37 18 -40 14 -12 -12
-7 -120 6 -131 6 -5 25 -8 42 -7 16 2 32 0 35 -4 6 -10 141 -56 157 -55 7 1
11 -2 8 -6 -3 -5 0 -10 7 -12 12 -4 8 -53 -18 -209 -6 -35 -4 -37 24 -44 37
-8 55 -45 51 -107 -3 -34 -9 -46 -30 -60 -15 -9 -30 -30 -34 -46 -3 -16 -19
-38 -34 -50 -28 -20 -45 -73 -42 -129 3 -54 2 -80 -4 -115 -6 -33 -12 -38 -68
-60 l-62 -23 924 -3 c508 -1 925 -1 927 0 1 2 3 68 5 148 3 140 3 145 -16 142
-11 -2 -40 -7 -65 -10 l-45 -7 -3 -122 -3 -121 -29 11 c-25 9 -30 17 -30 44 0
18 -4 33 -9 33 -5 0 -8 39 -7 88 1 85 0 88 -31 126 -18 22 -31 41 -29 44 3 2
0 9 -5 16 -46 55 -59 72 -60 81 0 6 -2 21 -5 34 -2 14 -1 27 3 30 5 3 13 15
19 26 6 11 21 25 33 30 17 8 21 16 17 35 -13 56 -16 68 -26 133 -11 71 -8 87
16 87 8 0 14 4 14 8 0 5 27 17 60 28 45 14 59 23 55 34 -5 11 -3 12 6 3 23
-23 74 14 64 47 -12 38 -52 100 -59 93 -4 -4 -4 -1 -1 8 3 9 -5 28 -20 45 -14
16 -28 37 -31 47 -3 9 -10 17 -16 17 -6 0 -8 3 -5 7 4 3 -2 12 -13 20 -11 8
-20 21 -20 29 0 12 -4 13 -22 3 -13 -7 -27 -18 -31 -25 -4 -8 -15 -14 -22 -14
-8 0 -15 -7 -15 -16 0 -8 -4 -13 -9 -10 -4 3 -39 -10 -77 -29 -38 -19 -75 -35
-81 -35 -7 0 -13 -4 -13 -9 0 -5 -11 -12 -25 -15 -14 -4 -25 -10 -25 -15 0 -5
-9 -7 -20 -4 -11 3 -20 1 -20 -5 0 -5 -7 -13 -16 -16 -9 -4 -13 -2 -8 5 8 13
-35 2 -50 -12 -20 -18 -46 -10 -46 14 0 34 -7 37 -47 20 -39 -16 -88 -11 -135
13 -25 13 -29 13 -49 -7 -25 -25 -55 -23 -139 10 -30 11 -58 21 -62 21 -12 0
-10 -58 2 -65 6 -4 8 -10 5 -15 -6 -9 -77 -1 -85 10 -3 3 -41 15 -84 25 -44
11 -84 24 -90 30 -6 6 -44 23 -83 39 -40 15 -73 31 -73 36 0 4 -13 13 -30 20
-16 7 -41 23 -55 36 -32 30 -43 30 -54 2 -5 -13 -20 -37 -33 -54 l-23 -31 -85
54 -84 53 3 76 c2 48 -2 80 -9 89 -17 20 -7 19 40 -5 72 -37 80 -18 22 57 -78
100 -76 93 -62 212 11 101 15 119 24 110 2 -2 25 -48 50 -103 48 -102 143
-273 157 -282 5 -3 1 14 -7 38 -20 57 -70 278 -79 351 -7 63 2 157 15 157 4 0
14 -24 20 -52 23 -97 97 -302 146 -407 l49 -104 0 389 c1 410 6 485 50 682 28
129 59 208 88 224 17 9 19 8 14 -8 -63 -204 -110 -440 -106 -529 1 -23 0 -26
54 168 45 162 145 370 174 365 8 -2 34 17 57 42 23 25 45 42 49 39 3 -4 -8
-42 -26 -85 -38 -96 -82 -244 -75 -252 3 -3 13 12 21 32 23 55 111 210 164
291 52 78 131 185 138 185 2 0 30 -16 61 -36 112 -71 225 -203 268 -314 34
-87 41 -89 49 -13 8 80 -8 189 -36 252 -10 24 -18 46 -16 47 4 4 177 -171 272
-276 82 -90 129 -183 151 -301 28 -144 8 -519 -35 -666 -14 -47 9 -33 57 35
51 74 84 149 106 240 10 39 22 72 26 72 33 0 60 -22 70 -58 21 -78 40 -250 47
-415 4 -114 10 -166 17 -164 15 5 103 181 121 242 30 103 58 295 64 445 l6
155 30 -30 c21 -20 39 -56 55 -107 13 -43 28 -78 32 -78 4 0 8 45 8 99 0 100
-19 228 -42 285 -20 48 -89 179 -103 196 -7 8 -20 30 -29 47 -9 18 -57 74
-106 125 -50 51 -87 94 -83 95 7 3 91 -20 167 -44 18 -6 18 -3 -4 27 -60 84
-225 234 -326 296 -18 11 -17 13 11 24 67 28 174 50 240 50 161 0 399 -78 552
-182 48 -32 71 -34 142 -12 47 16 54 16 103 1 29 -10 67 -20 84 -23 18 -3 52
-25 78 -48 40 -38 46 -48 46 -84 0 -23 -9 -81 -21 -129 -40 -176 -46 -218 -64
-458 -9 -132 -16 -227 -21 -275 -15 -170 -24 -349 -24 -500 0 -96 -3 -232 -7
-302 l-6 -128 -286 0 c-283 0 -497 -12 -536 -29 -11 -5 -38 -14 -60 -20 -52
-14 -123 -66 -127 -94 -5 -32 12 -93 31 -114 10 -10 15 -28 13 -43 -6 -43 16
-138 39 -169 14 -19 23 -50 26 -83 3 -29 16 -76 29 -104 37 -78 44 -139 44
-379 0 -202 2 -223 18 -238 25 -23 79 -22 91 1 5 9 9 91 10 182 1 91 4 183 7
205 15 109 -27 415 -57 415 -20 0 -7 28 31 65 l40 39 83 -12 c46 -7 115 -12
154 -12 85 0 83 5 83 -157 l0 -113 -35 0 -35 0 2 -177 3 -178 46 -3 45 -3 0
-182 -1 -182 83 -3 c81 -3 82 -2 92 23 6 16 10 212 10 500 l0 475 23 4 c12 2
39 4 60 3 33 -1 37 -4 37 -27 0 -38 18 -50 77 -50 51 0 53 -1 68 -37 15 -35
14 -43 -9 -128 -41 -145 -51 -281 -36 -480 7 -93 17 -178 22 -187 6 -12 21
-18 46 -18 36 0 38 2 50 45 7 25 12 80 12 123 1 133 26 372 40 372 10 0 91
-165 122 -248 11 -30 26 -66 34 -80 14 -27 14 -27 14 15 0 30 -18 82 -61 180
-92 207 -90 193 -37 293 24 47 49 100 56 118 6 17 18 32 26 32 14 0 16 172 16
1715 l0 1715 -2300 0 -2300 0 0 -120z m1182 -1137 c-56 -66 -81 -106 -152
-250 l-51 -103 -51 0 c-40 0 -49 3 -44 15 9 25 94 150 136 200 37 45 203 205
208 200 2 -2 -18 -30 -46 -62z m-350 -480 c3 -25 8 -29 53 -34 45 -5 42 -6
-25 -7 -41 0 -69 2 -62 5 6 2 12 18 12 34 0 37 18 38 22 2z m228 -193 c0 -5
-16 -10 -36 -10 -21 0 -33 4 -29 10 3 6 19 10 36 10 16 0 29 -4 29 -10z m-42
-157 c-16 -2 -40 -2 -55 0 -16 2 -3 4 27 4 30 0 43 -2 28 -4z m-25 -141 c66
-4 49 -22 -22 -22 l-58 0 4 53 c7 77 16 89 23 27 l5 -55 48 -3z m1997 -596 c0
-11 -19 -15 -25 -6 -3 5 1 10 9 10 9 0 16 -2 16 -4z m-170 -106 c0 -5 -5 -10
-11 -10 -5 0 -7 5 -4 10 3 6 8 10 11 10 2 0 4 -4 4 -10z m-1346 -45 c-4 -8 -8
-15 -10 -15 -2 0 -4 7 -4 15 0 8 4 15 10 15 5 0 7 -7 4 -15z m76 -95 c0 -5 -4
-10 -10 -10 -5 0 -10 5 -10 10 0 6 5 10 10 10 6 0 10 -4 10 -10z m120 0 c0 -5
-9 -10 -20 -10 -11 0 -20 5 -20 10 0 6 9 10 20 10 11 0 20 -4 20 -10z m681
-64 c32 -67 37 -106 14 -106 -18 0 -35 31 -35 62 0 13 -6 33 -14 44 -13 18
-20 47 -17 67 3 19 25 -10 52 -67z m239 60 c25 -2 53 -7 63 -11 18 -8 24 -35
6 -35 -5 0 -8 -4 -5 -8 3 -5 -14 -9 -37 -9 -36 -1 -38 0 -17 7 16 6 -15 7 -87
4 -90 -5 -113 -3 -114 8 0 7 -2 20 -4 28 -2 12 10 16 58 17 33 1 62 4 64 7 3
3 10 3 16 1 7 -2 32 -6 57 -9z m-401 -50 c6 -7 6 -17 1 -26 -7 -11 -35 -16
-107 -19 -59 -2 -101 -8 -106 -15 -4 -6 -6 5 -4 24 l3 35 72 3 c40 2 72 6 72
11 0 11 58 1 69 -13z m-109 -91 c0 -8 -2 -15 -4 -15 -2 0 -6 7 -10 15 -3 8 -1
15 4 15 6 0 10 -7 10 -15z m390 -33 c0 -4 -9 -8 -19 -8 -11 0 -17 4 -15 8 3 4
12 8 20 8 8 0 14 -4 14 -8z m-280 -22 c-13 -8 -13 -10 2 -10 14 0 17 -14 20
-91 2 -50 0 -93 -4 -95 -4 -3 -37 -7 -74 -11 -51 -5 -68 -3 -75 8 -8 11 -13
10 -26 -8 -21 -31 -63 -30 -91 2 -23 27 -29 40 -12 30 6 -3 10 1 10 9 0 36
100 51 119 19 10 -17 10 -17 11 1 0 15 3 16 14 7 10 -9 16 -9 21 -1 4 6 15 8
25 5 13 -4 19 2 24 26 3 17 6 42 6 55 0 13 5 24 11 24 8 0 8 4 0 14 -9 11 -9
15 1 19 22 9 34 7 18 -3z m-540 -20 c0 -5 -5 -10 -11 -10 -5 0 -7 5 -4 10 3 6
8 10 11 10 2 0 4 -4 4 -10z m1240 -40 c0 -5 -5 -10 -11 -10 -5 0 -7 5 -4 10 3
6 8 10 11 10 2 0 4 -4 4 -10z m-236 -75 c-4 -8 -11 -12 -16 -9 -6 4 -5 10 3
15 19 12 19 11 13 -6z m95 -80 c60 -12 81 -24 81 -45 0 -19 -6 -20 -99 -20
-111 0 -133 11 -113 54 9 21 17 24 54 21 24 -1 58 -6 77 -10z m-855 -5 c-7 -7
-19 -7 -35 -1 -23 9 -22 10 11 10 23 1 31 -2 24 -9z m62 -67 l-6 -47 25 34
c14 19 25 40 25 47 0 7 10 13 21 13 19 0 20 -4 15 -32 -3 -18 -9 -50 -12 -71
-7 -39 -14 -44 -78 -49 -24 -2 -31 2 -37 22 l-7 25 -1 -28 c-1 -25 -4 -27 -33
-26 -18 1 -52 -1 -76 -5 -29 -5 -47 -4 -57 4 -37 31 3 140 51 140 13 0 24 -6
24 -12 1 -8 7 -5 15 6 19 24 49 14 40 -14 -8 -24 10 -27 19 -4 4 10 12 14 22
10 11 -4 18 1 21 14 3 11 12 20 21 20 12 0 14 -9 8 -47z m252 -40 l-3 -48 -55
-2 c-41 -1 -58 3 -68 15 -11 15 -13 15 -18 -6 -9 -34 -34 -28 -34 9 0 56 13
67 81 68 34 0 64 3 67 6 3 3 12 5 19 5 10 0 13 -12 11 -47z m-531 5 c-3 -7 -5
-2 -5 12 0 14 2 19 5 13 2 -7 2 -19 0 -25z m952 -10 c-12 -65 -10 -77 8 -35
10 24 22 37 34 37 10 0 19 -5 19 -11 0 -6 5 -7 13 -2 6 4 19 8 27 10 8 1 27 4
42 7 26 5 27 4 25 -35 -1 -44 -18 -57 -82 -63 -16 -2 -38 -6 -48 -11 -10 -4
-23 -2 -31 4 -8 7 -17 8 -20 3 -3 -5 -25 -12 -48 -15 -24 -3 -53 -9 -66 -13
-13 -3 -22 -3 -20 2 2 5 -1 9 -7 9 -5 0 -9 -3 -8 -6 3 -10 -76 -9 -82 2 -4 5
-1 16 5 24 8 9 9 29 5 54 -6 35 -4 41 20 57 33 22 58 10 63 -30 3 -23 6 -25
24 -15 11 6 29 9 39 6 21 -6 59 27 59 50 0 7 8 13 19 13 16 0 17 -5 10 -42z
m-273 10 c4 -6 0 -16 -8 -22 -8 -6 -13 -16 -11 -23 2 -6 -1 -14 -6 -18 -6 -3
-11 -22 -11 -41 0 -30 -3 -34 -27 -34 -18 0 -23 -3 -16 -8 8 -5 0 -8 -20 -9
-29 -1 -33 3 -35 26 -4 43 17 81 45 81 13 0 26 7 30 18 14 40 44 55 59 30z
m-742 -100 c-3 -4 -12 -8 -20 -8 -8 0 -14 4 -14 8 0 4 9 8 19 8 11 0 17 -4 15
-8z m453 -24 c-3 -3 -12 -4 -19 -1 -8 3 -5 6 6 6 11 1 17 -2 13 -5z m-184 -11
c-7 -2 -19 -2 -25 0 -7 3 -2 5 12 5 14 0 19 -2 13 -5z m12 -23 c3 -6 -1 -7 -9
-4 -18 7 -21 14 -7 14 6 0 13 -4 16 -10z"/>
<path d="M1766 984 c-4 -9 -4 -19 -1 -22 2 -3 7 3 11 12 4 9 4 19 1 22 -2 3
-7 -3 -11 -12z"/>
<path d="M0 2910 l0 -80 129 0 128 0 7 70 c4 38 4 74 1 80 -4 6 -60 10 -136
10 l-129 0 0 -80z"/>
<path d="M286 2920 c-4 -38 -4 -74 -1 -80 4 -6 58 -10 131 -10 l124 0 0 80 0
80 -124 0 -123 0 -7 -70z"/>
<path d="M0 2750 l0 -70 55 0 55 0 0 70 0 70 -55 0 -55 0 0 -70z"/>
<path d="M120 2750 l0 -70 130 0 130 0 0 70 0 70 -130 0 -130 0 0 -70z"/>
<path d="M397 2813 c-4 -3 -7 -35 -7 -70 l0 -63 130 0 130 0 0 70 0 70 -123 0
c-68 0 -127 -3 -130 -7z"/>
<path d="M14 2646 c-3 -8 -4 -31 -2 -52 l3 -39 30 42 c35 49 50 55 41 16 -3
-16 -9 -43 -12 -60 l-7 -33 97 0 96 0 0 70 0 70 -120 0 c-94 0 -122 -3 -126
-14z"/>
<path d="M284 2647 c-3 -8 -4 -39 -2 -68 l3 -54 125 0 125 0 0 65 0 65 -123 3
c-98 2 -123 0 -128 -11z"/>
<path d="M552 2593 l3 -68 128 -3 127 -3 0 71 0 70 -130 0 -131 0 3 -67z"/>
<path d="M1975 2631 c-7 -12 22 -41 40 -41 16 0 38 34 28 44 -10 9 -61 7 -68
-3z"/>
<path d="M2442 2629 c7 -22 36 -35 54 -24 27 17 20 30 -20 33 -27 2 -37 0 -34
-9z"/>
<path d="M55 2498 c-2 -7 -8 -37 -13 -66 -11 -59 -6 -66 45 -60 19 2 28 8 27
21 0 9 -1 40 -2 67 -2 46 -4 50 -27 50 -14 0 -28 -6 -30 -12z"/>
<path d="M130 2446 c0 -105 38 -103 47 3 6 61 6 61 -21 61 -25 0 -26 -1 -26
-64z"/>
<path d="M194 2448 c4 -34 10 -66 12 -70 3 -4 43 -8 90 -8 l84 0 0 70 0 70
-96 0 -97 0 7 -62z"/>
<path d="M402 2443 l3 -68 125 0 125 0 3 44 c7 92 9 91 -134 91 l-125 0 3 -67z"/>
<path d="M30 2300 c0 -27 -1 -53 -2 -57 -2 -5 18 -9 43 -11 l47 -3 20 60 21
61 -65 0 -64 0 0 -50z"/>
<path d="M195 2313 c-3 -21 -8 -48 -11 -60 -4 -21 -1 -23 41 -23 l45 0 0 60 0
60 -35 0 c-32 0 -35 -3 -40 -37z"/>
<path d="M290 2298 c1 -44 3 -50 13 -37 7 8 38 30 70 48 31 18 57 34 57 37 0
2 -31 4 -70 4 l-70 0 0 -52z"/>
<path d="M442 2326 c-6 -13 -14 -40 -17 -60 l-7 -36 61 0 61 0 0 60 0 60 -43
0 c-37 0 -46 -4 -55 -24z"/>
<path d="M560 2336 c0 -7 -3 -34 -6 -60 l-7 -46 132 0 131 0 0 60 0 60 -125 0
c-99 0 -125 -3 -125 -14z"/>
<path d="M17 2158 c-6 -60 -5 -62 20 -54 15 5 73 85 73 101 0 3 -20 5 -44 5
l-43 0 -6 -52z"/>
<path d="M174 2199 c-3 -6 -9 -40 -12 -75 l-5 -64 47 0 c52 0 50 -3 63 88 l9
62 -47 0 c-26 0 -51 -5 -55 -11z"/>
<path d="M396 2177 c-7 -19 -16 -43 -20 -55 -19 -66 -20 -62 18 -62 l36 0 0
75 c0 81 -11 95 -34 42z"/>
<path d="M442 2138 c3 -67 5 -73 26 -76 12 -2 22 2 22 9 0 15 30 38 49 39 11
0 11 -4 -2 -18 -10 -10 -17 -22 -17 -25 0 -4 38 -7 85 -7 l85 0 0 75 0 75
-125 0 -126 0 3 -72z"/>
<path d="M165 2018 c4 -13 11 -27 15 -31 11 -12 47 9 60 33 10 19 7 20 -35 20
-43 0 -46 -1 -40 -22z"/>
<path d="M400 2026 c18 -11 30 -11 45 -4 32 17 31 18 -21 18 -47 -1 -48 -1
-24 -14z"/>
<path d="M504 2000 c7 -48 26 -90 39 -90 5 0 7 10 3 23 -3 12 -6 41 -6 65 0
36 -3 42 -21 42 -19 0 -21 -4 -15 -40z"/>
<path d="M560 1970 l0 -70 125 0 125 0 0 70 0 70 -125 0 -125 0 0 -70z"/>
<path d="M822 1973 l3 -68 125 0 125 0 3 68 3 67 -131 0 -131 0 3 -67z"/>
<path d="M1306 2002 c-3 -3 -6 -34 -6 -68 l0 -63 61 -41 c33 -22 65 -40 70
-40 6 0 9 32 7 77 l-3 77 -62 32 c-34 18 -64 30 -67 26z"/>
<path d="M1400 1986 c0 -9 5 -16 10 -16 6 0 10 4 10 9 0 6 -4 13 -10 16 -5 3
-10 -1 -10 -9z"/>
<path d="M2145 1926 c-5 -2 -22 -7 -37 -10 -60 -13 -23 -23 71 -18 95 4 123 0
204 -33 11 -5 17 -3 17 7 0 28 -209 72 -255 54z"/>
<path d="M544 1853 c3 -21 6 -50 6 -65 0 -28 0 -28 70 -28 l70 0 0 65 0 65
-76 0 -77 0 7 -37z"/>
<path d="M717 1884 c-4 -4 -7 -33 -7 -65 l0 -58 118 -3 c64 -2 123 -1 130 1 9
2 12 21 10 65 l-3 61 -121 3 c-66 1 -123 -1 -127 -4z"/>
<path d="M560 1665 l0 -75 125 0 126 0 -3 73 -3 72 -122 3 -123 3 0 -76z"/>
<path d="M824 1727 c-3 -8 -4 -41 -2 -73 l3 -59 125 0 125 0 0 70 0 70 -123 3
c-97 2 -123 0 -128 -11z"/>
<path d="M1097 1734 c-9 -9 -9 -106 -1 -128 5 -13 21 -16 76 -16 l69 0 -3 73
-3 72 -65 3 c-36 2 -69 0 -73 -4z"/>
<path d="M1260 1650 c0 -38 2 -70 4 -70 2 0 11 -3 20 -6 14 -5 16 4 16 58 0
59 -11 88 -32 88 -4 0 -8 -31 -8 -70z"/>
<path d="M531 1604 c0 -11 3 -14 6 -6 3 7 2 16 -1 19 -3 4 -6 -2 -5 -13z"/>
<path d="M556 1573 c-28 -3 -53 -16 -87 -46 -26 -23 -79 -58 -116 -77 -66 -34
-72 -35 -178 -35 -60 0 -125 4 -142 9 l-33 9 0 -42 0 -41 215 0 215 0 0 -90
c0 -73 3 -90 15 -90 12 0 15 17 15 90 l0 90 39 0 c74 0 102 11 124 47 11 19
31 39 43 44 22 8 24 14 24 74 l0 65 -47 -2 c-27 -1 -66 -3 -87 -5z"/>
<path d="M710 1510 l0 -71 123 3 122 3 0 65 0 65 -122 3 -123 3 0 -71z"/>
<path d="M980 1510 l0 -71 128 3 127 3 0 65 0 65 -127 3 -128 3 0 -71z"/>
<path d="M1260 1511 c0 -27 -2 -56 -6 -64 -3 -8 6 -21 21 -31 25 -17 26 -17
40 17 30 73 30 82 -10 106 -20 11 -38 21 -41 21 -2 0 -4 -22 -4 -49z"/>
<path d="M0 433 l0 -260 77 -7 c177 -15 467 8 613 48 47 13 99 27 115 31 49
11 184 73 222 102 127 97 56 188 -214 272 -154 47 -268 61 -555 68 l-258 6 0
-260z"/>
</g>
</svg>
